<svg width="20" height="20" viewBox="0 0 20 20" fill="none" xmlns="http://www.w3.org/2000/svg">
<path d="M10 5.83333V4.16667C10 3.25 9.25001 2.5 8.33334 2.5H3.33334C2.41667 2.5 1.66667 3.25 1.66667 4.16667V15.8333C1.66667 16.75 2.41667 17.5 3.33334 17.5H16.6667C17.5833 17.5 18.3333 16.75 18.3333 15.8333V7.5C18.3333 6.58333 17.5833 5.83333 16.6667 5.83333H10ZM8.33334 15.8333H3.33334V14.1667H8.33334V15.8333ZM8.33334 12.5H3.33334V10.8333H8.33334V12.5ZM8.33334 9.16667H3.33334V7.5H8.33334V9.16667ZM8.33334 5.83333H3.33334V4.16667H8.33334V5.83333ZM16.6667 15.8333H10V7.5H16.6667V15.8333ZM15 9.16667H11.6667V10.8333H15V9.16667ZM15 12.5H11.6667V14.1667H15V12.5Z" fill="#2379EA"/>
</svg>
