<svg width="20" height="20" viewBox="0 0 20 20" fill="none" xmlns="http://www.w3.org/2000/svg">
<path d="M10.3591 2.69589C10.1353 2.57379 9.8647 2.57379 9.64084 2.69589L2.04092 6.8413C1.51967 7.12562 1.5198 7.87414 2.04115 8.15827L3.77555 9.10352C4.01663 9.23491 4.16665 9.48752 4.16665 9.76207V13.8715C4.16665 14.1459 4.3165 14.3984 4.55738 14.5299L9.64071 17.3039C9.86464 17.4261 10.1353 17.4261 10.3593 17.3039L15.4426 14.5299C15.6835 14.3984 15.8333 14.1459 15.8333 13.8715V9.76207C15.8333 9.48752 15.9833 9.23491 16.2244 9.10352L16.3911 9.01269C16.8908 8.74031 17.5 9.10206 17.5 9.67124V13.4167C17.5 13.8309 17.8358 14.1667 18.25 14.1667H18.4166C18.8309 14.1667 19.1666 13.8309 19.1666 13.4167V7.94522C19.1666 7.67077 19.0167 7.41823 18.7758 7.2868L10.3591 2.69589ZM14.4762 6.84158C14.9974 7.12584 14.9974 7.87416 14.4762 8.15842L10.3591 10.4041C10.1353 10.5262 9.8647 10.5262 9.64084 10.4041L5.52375 8.15842C5.0026 7.87416 5.0026 7.12584 5.52375 6.84158L9.64084 4.59589C9.8647 4.47379 10.1353 4.47379 10.3591 4.59589L14.4762 6.84158ZM14.1666 12.88C14.1666 13.1543 14.0169 13.4068 13.7761 13.5383L10.3594 15.4038C10.1354 15.5261 9.86457 15.5261 9.64056 15.4038L6.2239 13.5383C5.98311 13.4068 5.83331 13.1543 5.83331 12.88V11.489C5.83331 10.9196 6.44294 10.5579 6.94273 10.8307L9.64056 12.3038C9.86457 12.4261 10.1354 12.4261 10.3594 12.3038L13.0572 10.8307C13.557 10.5579 14.1666 10.9196 14.1666 11.489V12.88Z" fill="#2379EA"/>
</svg>
