<svg width="20" height="20" viewBox="0 0 20 20" fill="none" xmlns="http://www.w3.org/2000/svg">
<path d="M9.83333 9.08333C7.94166 8.59167 7.33333 8.08333 7.33333 7.29167C7.33333 6.38333 8.175 5.75 9.58333 5.75C10.7667 5.75 11.3583 6.2 11.575 6.91667C11.675 7.25 11.95 7.5 12.3 7.5H12.55C13.1 7.5 13.4917 6.95833 13.3 6.44167C12.95 5.45833 12.1333 4.64167 10.8333 4.325V3.75C10.8333 3.05833 10.275 2.5 9.58333 2.5C8.89166 2.5 8.33333 3.05833 8.33333 3.75V4.3C6.71666 4.65 5.41666 5.7 5.41666 7.30833C5.41666 9.23333 7.00833 10.1917 9.33333 10.75C11.4167 11.25 11.8333 11.9833 11.8333 12.7583C11.8333 13.3333 11.425 14.25 9.58333 14.25C8.20833 14.25 7.5 13.7583 7.225 13.0583C7.1 12.7333 6.81666 12.5 6.475 12.5H6.24166C5.68333 12.5 5.29166 13.0667 5.5 13.5833C5.975 14.7417 7.08333 15.425 8.33333 15.6917V16.25C8.33333 16.9417 8.89166 17.5 9.58333 17.5C10.275 17.5 10.8333 16.9417 10.8333 16.25V15.7083C12.4583 15.4 13.75 14.4583 13.75 12.75C13.75 10.3833 11.725 9.575 9.83333 9.08333Z" fill="#2379EA"/>
</svg>
